<svg xmlns="http://www.w3.org/2000/svg" viewBox="0 0 972 1024"><defs><style>.cls-1{fill:#fff;stroke:#000;stroke-miterlimit:10;}.cls-2{fill:#534741;}</style></defs><title>Recurso 2</title><g id="Capa_2" data-name="Capa 2"><g id="Capa_1-2" data-name="Capa 1"><rect class="cls-1" x="35.43" y="37.33" width="901.14" height="949.34" rx="264.1" ry="264.1"/><path class="cls-2" d="M646.9,53A268.88,268.88,0,0,1,752.4,74.4,275.47,275.47,0,0,1,897.5,219.6a268.88,268.88,0,0,1,21.4,105.5V699A270.53,270.53,0,0,1,839,891a273.2,273.2,0,0,1-86.6,58.5,268.88,268.88,0,0,1-105.5,21.4H325.1A271,271,0,0,1,133,891a273.2,273.2,0,0,1-58.5-86.6A266.49,266.49,0,0,1,53,698.9V325.1A268.88,268.88,0,0,1,74.4,219.6,274.86,274.86,0,0,1,132.9,133a270.46,270.46,0,0,1,86.6-58.5A267.33,267.33,0,0,1,325.1,53H646.9m0-53H325.1C146.3,0,0,146.3,0,325.1V699c0,178.7,146.3,325,325.1,325H647c178.7,0,325-146.3,325-325.1V325.1C972,146.3,825.7,0,646.9,0Z"/><path class="cls-2" d="M500.4,842.9c-60.9,50.1-115.5,58.4-166.6,24.4-13.1-8.7-25.8-20.6-33.5-34-4.6-7.9-3-27.2,2.8-31.4,8.2-5.8,23.5-4.3,34.9-1.9,6.6,1.4,11,11.3,17.1,16.6,39.3,33.9,101.3,15.7,114.1-34.6,2.6-10.2-2.7-24.8-9-34.2-15-22.7-33.9-42.9-49.2-65.4-15.7-23.1-4.3-45.3,23.6-46.1,43.5-1.2,87.1-1.1,130.5.1,27.6.7,39.4,23.1,24.1,46.4-14.9,22.7-34,42.7-49.1,65.4-6.1,9.2-11.3,23.5-8.7,33.2,15,55.3,79.6,71.1,119.6,29.4,14.2-14.8,28.8-26.7,46-10.8,19.2,17.7,5.5,35.2-8.2,49.7C639.7,901.6,567.7,899.5,500.4,842.9Z"/><path class="cls-2" d="M686.1,393.7c-32.6-.2-57.4-25.3-57.2-57.7.2-31.7,26.6-57.3,58.6-56.7,32.3.6,57.7,26.3,57.1,58.1C744,369.9,719.1,393.9,686.1,393.7Z"/><path class="cls-2" d="M453.9,263.1C425,207.1,376.4,180,319.2,179c-68,.4-115.4,27.9-145,81.7-30.3,55.1-28,111.6,7.5,163.6,31.3,45.9,66.2,89.3,99.8,133.6,23.1,30.4,40.8,30.3,64.3-.3,32-41.7,64.2-83.2,94.9-125.8C479,378.7,483.9,321,453.9,263.1ZM313.8,392.4c-30.3.3-56-25.5-55.9-56,.2-31.2,24.6-54.7,56.7-54.5,30.8.2,53.4,22.8,53.7,53.7C368.6,367.2,344.7,392.2,313.8,392.4Z"/></g></g></svg>