<?xml version="1.0" encoding="utf-8"?>
<!-- Generator: Adobe Illustrator 22.1.0, SVG Export Plug-In . SVG Version: 6.00 Build 0)  -->
<svg version="1.1" id="Capa_1" xmlns="http://www.w3.org/2000/svg" xmlns:xlink="http://www.w3.org/1999/xlink" x="0px" y="0px"
	 viewBox="0 0 1024 1024" style="enable-background:new 0 0 1024 1024;" xml:space="preserve">
<style type="text/css">
	.st0{fill:#FFFFFF;}
</style>
<g>
	<path d="M263.7,0.9c82.6,1.4,152.7,40.6,194.5,121.4c43.2,83.6,36.2,166.8-19.1,243.5c-44.3,61.5-90.9,121.4-137,181.6
		c-33.9,44.2-59.5,44.3-92.8,0.5C160.7,483.9,110.3,421.3,65.2,355C14,280,10.7,198.3,54.4,118.8C97.2,41.1,165.5,1.4,263.7,0.9z
		 M334.6,226.9c-0.4-44.6-33.1-77.2-77.5-77.5c-46.3-0.3-81.6,33.6-81.9,78.7c-0.3,44,36.8,81.2,80.6,80.8
		C300.5,308.5,335.1,272.5,334.6,226.9z"/>
	<path d="M525.3,959.1c-87.9,72.3-166.7,84.3-240.4,35.2c-18.9-12.6-37.2-29.7-48.4-49.1c-6.6-11.4-4.4-39.3,4.1-45.3
		c11.9-8.4,33.9-6.2,50.3-2.7c9.5,2,15.9,16.3,24.7,23.9c56.8,48.9,146.3,22.7,164.7-50c3.7-14.7-3.9-35.7-13-49.4
		c-21.7-32.8-48.9-61.9-71-94.4c-22.6-33.3-6.2-65.4,34.1-66.5c62.8-1.7,125.6-1.6,188.4,0.1c39.8,1,56.9,33.3,34.8,67
		c-21.5,32.8-49.1,61.7-70.9,94.3c-8.8,13.2-16.4,33.9-12.6,47.9c21.7,79.9,115,102.7,172.6,42.5c20.5-21.3,41.5-38.5,66.4-15.5
		c27.7,25.6,7.9,50.8-11.9,71.7C726.3,1043.9,622.3,1040.8,525.3,959.1z"/>
	<path d="M793.3,310.7c-47-0.3-82.9-36.5-82.5-83.3c0.4-45.8,38.4-82.7,84.5-81.9c46.7,0.8,83.2,38,82.4,83.9
		C876.9,276.4,840.9,311,793.3,310.7z"/>
	<path class="st0" d="M334.6,226.9c0.4,45.7-34.1,81.6-78.8,82c-43.8,0.4-80.9-36.8-80.6-80.8c0.3-45.1,35.6-79,81.9-78.7
		C301.6,149.7,334.2,182.3,334.6,226.9z"/>
</g>
</svg>
