<?xml version="1.0" encoding="utf-8"?>
<!-- Generator: Adobe Illustrator 22.1.0, SVG Export Plug-In . SVG Version: 6.00 Build 0)  -->
<svg version="1.1" id="Capa_1" xmlns="http://www.w3.org/2000/svg" xmlns:xlink="http://www.w3.org/1999/xlink" x="0px" y="0px"
	 viewBox="0 0 1024 1024" style="enable-background:new 0 0 1024 1024;" xml:space="preserve">
<style type="text/css">
	.st0{fill:#534741;}
</style>
<g>
	<path class="st0" d="M672.9,53c36.5,0,72,7.2,105.5,21.4C810.8,88.2,840,107.9,865,133s44.8,54.2,58.5,86.6
		c14.2,33.5,21.4,69,21.4,105.5v373.9c0,36.5-7.2,72-21.4,105.5C909.8,836.8,890.1,866,865,891s-54.2,44.8-86.6,58.5
		c-33.5,14.2-69,21.4-105.5,21.4H351.1c-36.5,0-72-7.2-105.5-21.4C213.2,935.8,184,916.1,159,891s-44.8-54.2-58.5-86.6
		C86.2,771,79,735.5,79,698.9V325.1c0-36.5,7.2-72,21.4-105.5c13.8-32.4,33.5-61.5,58.5-86.6s54.2-44.8,86.6-58.5
		C279,60.2,314.5,53,351.1,53H672.9 M672.9,0H351.1C172.3,0,26,146.3,26,325.1v373.9C26,877.7,172.3,1024,351.1,1024h321.9
		C851.7,1024,998,877.7,998,698.9V325.1C998,146.3,851.7,0,672.9,0L672.9,0z"/>
</g>
<g>
	<path class="st0" d="M526.4,842.9c-60.9,50.1-115.5,58.4-166.6,24.4c-13.1-8.7-25.8-20.6-33.5-34c-4.6-7.9-3-27.2,2.8-31.4
		c8.2-5.8,23.5-4.3,34.9-1.9c6.6,1.4,11,11.3,17.1,16.6c39.3,33.9,101.3,15.7,114.1-34.6c2.6-10.2-2.7-24.8-9-34.2
		c-15-22.7-33.9-42.9-49.2-65.4c-15.7-23.1-4.3-45.3,23.6-46.1c43.5-1.2,87.1-1.1,130.5,0.1c27.6,0.7,39.4,23.1,24.1,46.4
		c-14.9,22.7-34,42.7-49.1,65.4c-6.1,9.2-11.3,23.5-8.7,33.2c15,55.3,79.6,71.1,119.6,29.4c14.2-14.8,28.8-26.7,46-10.8
		c19.2,17.7,5.5,35.2-8.2,49.7C665.7,901.6,593.7,899.5,526.4,842.9z"/>
	<path class="st0" d="M712.1,393.7c-32.6-0.2-57.4-25.3-57.2-57.7c0.2-31.7,26.6-57.3,58.6-56.7c32.3,0.6,57.7,26.3,57.1,58.1
		C770,369.9,745.1,393.9,712.1,393.7z"/>
	<path class="st0" d="M479.9,263.1c-28.9-56-77.5-83.1-134.7-84.1c-68,0.4-115.4,27.9-145,81.7c-30.3,55.1-28,111.6,7.5,163.6
		c31.3,45.9,66.2,89.3,99.8,133.6c23.1,30.4,40.8,30.3,64.3-0.3c32-41.7,64.2-83.2,94.9-125.8C505,378.7,509.9,321,479.9,263.1z
		 M339.8,392.4c-30.3,0.3-56-25.5-55.9-56c0.2-31.2,24.6-54.7,56.7-54.5c30.8,0.2,53.4,22.8,53.7,53.7
		C394.6,367.2,370.7,392.2,339.8,392.4z"/>
</g>
</svg>
