<?xml version="1.0" encoding="utf-8"?>
<!-- Generator: Adobe Illustrator 22.1.0, SVG Export Plug-In . SVG Version: 6.00 Build 0)  -->
<svg version="1.1" id="Capa_1" xmlns="http://www.w3.org/2000/svg" xmlns:xlink="http://www.w3.org/1999/xlink" x="0px" y="0px"
	 viewBox="0 0 1024 1024" style="enable-background:new 0 0 1024 1024;" xml:space="preserve">
<style type="text/css">
	.st0{fill:#534741;}
	.st1{fill:#FFFFFF;}
	.st2{fill:#C0CC71;}
	.st3{font-family:'Rubik-Regular';}
	.st4{font-size:191.4655px;}
</style>
<path class="st0" d="M135.9,413.1H69.4c-37,0-67.2,30.3-67.2,67.2v77.3c0,37,30.3,67.2,67.2,67.2H136c37,0,67.2-30.3,67.2-67.2
	v-77.3C203.2,443.3,172.9,413.1,135.9,413.1z"/>
<g>
	<path class="st1" d="M105.6,587.4c-12.6,10.4-23.9,12.1-34.5,5c-2.7-1.8-5.3-4.3-6.9-7c-1-1.6-0.6-5.6,0.6-6.5
		c1.7-1.2,4.9-0.9,7.2-0.4c1.4,0.3,2.3,2.3,3.5,3.4c8.1,7,21,3.2,23.6-7.2c0.5-2.1-0.6-5.1-1.9-7.1c-3.1-4.7-7-8.9-10.2-13.5
		c-3.2-4.8-0.9-9.4,4.9-9.5c9-0.2,18-0.2,27,0c5.7,0.1,8.2,4.8,5,9.6c-3.1,4.7-7,8.8-10.2,13.5c-1.3,1.9-2.3,4.9-1.8,6.9
		c3.1,11.4,16.5,14.7,24.7,6.1c2.9-3.1,6-5.5,9.5-2.2c4,3.7,1.1,7.3-1.7,10.3C134.4,599.6,119.5,599.1,105.6,587.4z"/>
	<path class="st1" d="M144,494.5c-6.7,0-11.9-5.2-11.8-11.9c0-6.6,5.5-11.9,12.1-11.7c6.7,0.1,11.9,5.4,11.8,12
		C156,489.6,150.9,494.6,144,494.5z"/>
	<path class="st1" d="M96,467.5c-6-11.6-16-17.2-27.9-17.4c-14.1,0.1-23.9,5.8-30,16.9c-6.3,11.4-5.8,23.1,1.6,33.8
		c6.5,9.5,13.7,18.5,20.6,27.6c4.8,6.3,8.4,6.3,13.3-0.1c6.6-8.6,13.3-17.2,19.6-26C101.2,491.4,102.2,479.5,96,467.5z M67,494.2
		c-6.3,0.1-11.6-5.3-11.6-11.6c0-6.5,5.1-11.3,11.7-11.3c6.4,0,11,4.7,11.1,11.1C78.4,489,73.4,494.2,67,494.2z"/>
</g>
<text transform="matrix(1 0 0 1 231.5322 591.629)"><tspan x="0" y="0" class="st2 st3 st4">Pet</tspan><tspan x="304" y="0" class="st0 st3 st4">World</tspan></text>
</svg>
